<svg width="43" height="43" viewBox="0 0 43 43" fill="none" xmlns="http://www.w3.org/2000/svg">
<path d="M21.6017 27.0293L24.3654 29.7931L32.6605 21.4999L24.3674 13.2068L21.6037 15.9725L25.1746 19.5454H10.4432V23.4545H25.1746L21.6017 27.0293Z" fill="white"/>
<path fill-rule="evenodd" clip-rule="evenodd" d="M36.7025 36.7025C45.0992 28.3057 45.0992 14.6943 36.7025 6.29755C28.3057 -2.09918 14.6943 -2.09918 6.29755 6.29755C-2.09918 14.6943 -2.09918 28.3057 6.29755 36.7025C14.6943 45.0992 28.3057 45.0992 36.7025 36.7025ZM33.9387 33.9387C37.2377 30.6398 39.091 26.1654 39.091 21.5C39.091 16.8346 37.2377 12.3602 33.9387 9.06127C30.6398 5.76232 26.1654 3.90898 21.5 3.90898C16.8346 3.90898 12.3602 5.76232 9.06127 9.06127C5.76231 12.3602 3.90898 16.8346 3.90898 21.5C3.90898 26.1654 5.76231 30.6398 9.06127 33.9387C12.3602 37.2377 16.8346 39.091 21.5 39.091C26.1654 39.091 30.6398 37.2377 33.9387 33.9387Z" fill="white"/>
</svg>
