<svg width="47" height="47" viewBox="0 0 47 47" fill="none" xmlns="http://www.w3.org/2000/svg">
<path d="M27.9356 0.428043L26.5252 0.230913C22.2865 -0.378569 17.961 0.224396 14.0533 1.96952C10.1455 3.71463 6.81629 6.53001 4.45386 10.0874C1.94029 13.4879 0.441885 17.526 0.13109 21.737C-0.179705 25.9481 0.709737 30.161 2.69706 33.8909C2.90045 34.2647 3.02707 34.6751 3.06955 35.0981C3.11204 35.5212 3.06952 35.9484 2.9445 36.355C1.93001 39.8294 0.989747 43.3285 0 47L1.23718 46.6304C4.57758 45.7433 7.91798 44.8562 11.2584 44.043C11.9634 43.8971 12.6963 43.9658 13.3616 44.2402C16.3585 45.6968 19.6337 46.4981 22.9672 46.5904C26.3007 46.6828 29.6155 46.0639 32.6891 44.7755C35.7627 43.487 38.524 41.5587 40.7877 39.12C43.0514 36.6813 44.7651 33.7886 45.8138 30.6361C46.8624 27.4836 47.2219 24.1441 46.8679 20.8418C46.5139 17.5396 45.4548 14.3509 43.7615 11.4899C42.0682 8.62882 39.78 6.16155 37.0504 4.25366C34.3209 2.34576 31.2131 1.04137 27.9356 0.428043ZM34.171 32.7574C33.2717 33.5592 32.1751 34.1093 30.9928 34.3517C29.8106 34.5941 28.5849 34.5201 27.4407 34.1373C22.2558 32.6833 17.7576 29.4437 14.7472 24.9954C13.5974 23.4221 12.673 21.6971 12.0007 19.87C11.6366 18.8099 11.5709 17.6707 11.8108 16.576C12.0507 15.4814 12.587 14.473 13.3616 13.6604C13.7386 13.1812 14.2519 12.8261 14.8345 12.6415C15.417 12.4569 16.0419 12.4513 16.6277 12.6255C17.1226 12.7487 17.469 13.4633 17.9144 14.0054C18.2757 15.0231 18.6988 16.0186 19.1763 16.987C19.5387 17.481 19.69 18.0978 19.5972 18.7026C19.5045 19.3074 19.1753 19.8511 18.6815 20.215C17.568 21.2006 17.7412 22.0138 18.533 23.1226C20.2835 25.634 22.6989 27.6128 25.5107 28.8394C26.3025 29.1844 26.8964 29.2583 27.416 28.4451C27.6387 28.1248 27.9356 27.8537 28.183 27.5581C29.6182 25.7592 29.1728 25.7839 31.4492 26.7695C32.1742 27.0726 32.8769 27.4275 33.5524 27.8291C34.2205 28.2234 35.235 28.6423 35.3834 29.2337C35.5263 29.8752 35.4887 30.5436 35.2748 31.1653C35.0609 31.787 34.679 32.3379 34.171 32.7574Z" fill="#D8D8D8"/>
</svg>
