<svg width="47" height="47" viewBox="0 0 47 47" fill="none" xmlns="http://www.w3.org/2000/svg">
<path fill-rule="evenodd" clip-rule="evenodd" d="M23.5 47C36.4787 47 47 36.4787 47 23.5C47 10.5213 36.4787 0 23.5 0C10.5213 0 0 10.5213 0 23.5C0 36.4787 10.5213 47 23.5 47ZM29.2498 27.2859C28.21 27.9524 27.068 28.4357 25.8715 28.7156L29.1231 32.035C29.4296 32.359 29.6009 32.792 29.6009 33.2425C29.6009 33.6931 29.4296 34.1261 29.1231 34.4501C28.4701 35.1423 27.3928 35.1574 26.7145 34.4954L23.5226 31.2299L20.3118 34.4911C19.9895 34.8311 19.554 35 19.1177 35C18.6814 35 18.2452 34.8311 17.9222 34.4911L17.8933 34.4616C17.5817 34.1356 17.4094 33.6967 17.4142 33.2411C17.4189 32.7856 17.6004 32.3505 17.9187 32.0314L21.1696 28.7113C19.9748 28.4335 18.8347 27.9511 17.7976 27.2845L17.7948 27.2809C17.6056 27.1595 17.4418 27.0011 17.3126 26.8149C17.1834 26.6287 17.0915 26.4183 17.0421 26.1958C16.9926 25.9732 16.9867 25.7429 17.0246 25.518C17.0625 25.2931 17.1434 25.078 17.2628 24.8851V24.8815C17.5045 24.4931 17.887 24.2184 18.3266 24.1174C18.7662 24.0165 19.227 24.0977 19.6082 24.3431C20.7821 25.0918 22.1383 25.4887 23.5223 25.4887C24.9063 25.4887 26.2624 25.0918 27.4364 24.3431C27.818 24.1148 28.2716 24.0471 28.7012 24.1543C29.1308 24.2614 29.5027 24.5351 29.7383 24.9174C29.9738 25.2997 30.0546 25.7607 29.9634 26.2027C29.8722 26.6447 29.6163 27.0332 29.2498 27.2859ZM27.6298 22.1326C26.5401 23.2452 25.0627 23.8707 23.5219 23.8716V23.8752C21.9809 23.8733 20.5035 23.2471 19.4139 22.1339C18.3242 21.0207 17.7114 19.5114 17.7097 17.9372C17.7097 14.6653 20.3189 12 23.5219 12C26.725 12 29.3342 14.6653 29.3342 17.9372C29.3325 19.5111 28.7195 21.02 27.6298 22.1326ZM25.2212 16.2014C24.7705 15.741 24.1593 15.4822 23.5219 15.4818V15.4782C22.8842 15.4805 22.2732 15.7403 21.8222 16.201C21.3713 16.6616 21.1169 17.2858 21.1147 17.9372C21.116 18.5891 21.37 19.214 21.8211 19.6751C22.2722 20.1362 22.8838 20.396 23.5219 20.3977C24.1598 20.3962 24.7711 20.1363 25.2217 19.6751C25.6723 19.2138 25.9255 18.5889 25.9257 17.9372C25.9253 17.2861 25.6719 16.6618 25.2212 16.2014Z" fill="#D8D8D8"/>
</svg>
